Coordinates
version=1
nRows=16
nColumns=40
inDegrees=yes

Units are S.I. units (second, meters, Newtons, ...)
Angles are in degrees.

endheader
time	pelvis_tilt	pelvis_list	pelvis_rotation	pelvis_tx	pelvis_ty	pelvis_tz	hip_flexion_r	hip_adduction_r	hip_rotation_r	knee_angle_r	knee_angle_r_beta	ankle_angle_r	subtalar_angle_r	mtp_angle_r	hip_flexion_l	hip_adduction_l	hip_rotation_l	knee_angle_l	knee_angle_l_beta	ankle_angle_l	subtalar_angle_l	mtp_angle_l	lumbar_extension	lumbar_bending	lumbar_rotation	arm_flex_r	arm_add_r	arm_rot_r	elbow_flex_r	pro_sup_r	wrist_flex_r	wrist_dev_r	arm_flex_l	arm_add_l	arm_rot_l	elbow_flex_l	pro_sup_l	wrist_flex_l	wrist_dev_l
      7.84500000	     -7.08595213	     -8.67548594	     -0.18109882	      0.97833229	      0.91096428	      0.49978882	     -1.25790514	      6.90078659	    -17.11526879	      6.99887698	      6.99887698	     16.92700325	      9.33464809	     -3.04216089	     38.50344401	    -12.70706538	      1.03294030	     22.45415711	     22.45415711	      6.20439795	    -10.61967397	     14.50385310	    -10.69198988	      7.31457839	      4.13423227	     42.99996858	    -14.18680703	      3.82576200	     88.46318243	     44.48948114	      0.00000000	      0.00000000	    -18.69580036	     -7.02076481	      1.90649887	     25.76483874	     45.12286176	      0.00000000	      0.00000000
      7.85650000	     -7.08952576	     -8.61431655	     -0.52291775	      0.98060146	      0.90921917	      0.49823323	     -1.73687437	      6.61257721	    -16.57770806	      7.53029509	      7.53029509	     17.66239217	      8.98349304	     -2.83568287	     37.79945040	    -12.71081461	      0.41872829	     22.41313599	     22.41313599	      5.06997275	    -11.35594086	     13.78587666	    -10.37554093	      7.19818033	      3.89715157	     44.10343042	    -13.72361936	      4.24470015	     90.72853390	     44.41846985	      0.00000000	      0.00000000	    -19.71212207	     -6.89960872	      1.93040571	     25.96635696	     45.10854479	      0.00000000	      0.00000000
      7.86800000	     -7.06524651	     -8.54243934	     -0.85700919	      0.98292043	      0.90762281	      0.49656696	     -2.16318735	      6.28665973	    -15.92475991	      8.24539386	      8.24539386	     18.82001937	      8.55183476	     -1.18348061	     36.96455097	    -12.68123898	     -0.08509885	     22.21970864	     22.21970864	      1.97135889	    -12.87381532	      8.45578005	    -10.12877718	      7.02663334	      4.15631886	     44.60906214	    -13.96989622	      4.47836301	     93.81046010	     44.40841659	      0.00000000	      0.00000000	    -20.64162519	     -7.01548933	      2.53239637	     26.91293753	     45.08165685	      0.00000000	      0.00000000
      7.87950000	     -7.07330265	     -8.32007791	     -1.08715604	      0.98495149	      0.90629284	      0.49465772	     -2.40063914	      5.75924221	    -15.36419333	      9.13213067	      9.13213067	     19.37920867	      7.84443996	     -1.26066750	     36.60261138	    -12.47846619	     -0.50384031	     22.96454577	     22.96454577	      1.20496792	    -13.63550622	      8.17817975	     -9.84229172	      6.70299635	      3.69676911	     45.45271813	    -13.34156858	      4.75770964	     95.71057529	     44.35625066	      0.00000000	      0.00000000	    -21.17648181	     -6.87973988	      2.67755659	     26.65832234	     45.06493233	      0.00000000	      0.00000000
      7.89100000	     -6.98673158	     -8.08556541	     -1.26627804	      0.98687721	      0.90537574	      0.49258357	     -2.63881822	      5.21816799	    -14.59227136	     10.17227637	     10.17227637	     19.94739802	      6.72977334	     -0.96085883	     36.20353666	    -12.23114496	     -0.75412743	     23.81959801	     23.81959801	      0.23374924	    -14.62127787	      6.77231003	     -9.74294284	      6.36694582	      3.82150877	     45.71926664	    -13.57285713	      4.80690397	     98.61287392	     44.31156113	      0.00000000	      0.00000000	    -21.19539779	     -6.93190359	      2.97479252	     26.44577464	     45.06797176	      0.00000000	      0.00000000
      7.90250000	     -6.78030140	     -7.74612841	     -1.36426970	      0.98882964	      0.90506096	      0.49019847	     -3.15828799	      4.54228864	    -14.31294727	     10.88185275	     10.88185275	     20.16575203	      6.38732658	     -1.06085268	     35.83838477	    -11.86897133	     -1.02148949	     25.02711705	     25.02711705	      0.18217640	    -15.17018330	      6.55339582	     -9.69205899	      5.88531482	      3.49431555	     46.25697331	    -13.27979131	      4.80099893	     99.40680707	     44.29209395	      0.00000000	      0.00000000	    -21.21559812	     -6.92320970	      3.02907419	     26.31010007	     45.06289968	      0.00000000	      0.00000000
      7.91400000	     -6.77121055	     -7.49012190	     -1.41082639	      0.99013357	      0.90463196	      0.48762382	     -2.70191118	      3.80912789	    -13.79202704	     12.98307581	     12.98307581	     20.56998064	      5.05422631	     -1.45303399	     35.73634367	    -11.50893772	     -1.01137593	     26.17702146	     26.17702146	      0.33517567	    -15.71350378	      6.29040531	     -9.63827515	      5.63295408	      2.83338522	     46.54504473	    -12.61352648	      5.00191296	    102.19069026	     44.21265694	      0.00000000	      0.00000000	    -21.06697747	     -6.74844038	      3.19810345	     25.91809311	     45.05460186	      0.00000000	      0.00000000
      7.92550000	     -6.47199171	     -7.25374187	     -1.45164636	      0.99163246	      0.90512775	      0.48491600	     -2.83206017	      3.12964422	    -13.45177514	     14.53599667	     14.53599667	     20.60699625	      4.26007490	     -1.76112006	     35.29463334	    -11.17035883	     -1.02067050	     27.34330003	     27.34330003	      0.88340666	    -16.16560192	      6.08674939	     -9.85972194	      5.32217893	      2.54284236	     46.64961765	    -12.53524633	      4.99062988	    103.79662253	     44.17127649	      0.00000000	      0.00000000	    -20.65620279	     -6.79147091	      3.27402391	     25.71973729	     45.05959666	      0.00000000	      0.00000000
      7.93700000	     -6.46166179	     -6.93854168	     -1.39749726	      0.99277935	      0.90566172	      0.48184422	     -2.42836507	      2.36323974	    -12.97480697	     16.39585557	     16.39585557	     20.20459153	      2.83764186	     -2.86564793	     35.12912266	    -10.64978953	     -0.92696485	     28.37400581	     28.37400581	      2.03684475	    -16.30143289	      7.17447093	     -9.87207945	      5.02095450	      3.38171296	     45.39961898	    -13.81249700	      4.27703758	    108.20786353	     44.09703920	      0.00000000	      0.00000000	    -19.03432317	     -6.99290312	      3.60231374	     24.71670436	     45.08710380	      0.00000000	      0.00000000
      7.94850000	     -6.07601922	     -6.82988292	     -1.19031751	      0.99416815	      0.90714034	      0.47847803	     -2.68513883	      1.79740428	    -13.05325888	     17.82125008	     17.82125008	     19.79331056	      2.37146215	     -3.08478705	     34.43198653	    -10.26136785	     -0.71800386	     29.10693829	     29.10693829	      2.84372099	    -16.44790718	      6.84519249	    -10.14814976	      4.96293385	      2.83750922	     45.07938169	    -13.61205866	      4.33437488	    108.65107139	     44.08340672	      0.00000000	      0.00000000	    -18.22935084	     -6.92683759	      3.66633592	     24.85615799	     45.09434902	      0.00000000	      0.00000000
      7.96000000	     -6.21085118	     -6.45448230	     -1.26847677	      0.99481607	      0.90790226	      0.47530430	     -1.52522581	      0.76025669	    -12.79437408	     20.69549121	     20.69549121	     18.75397413	      1.01366001	     -5.90915387	     34.23060935	     -9.73827063	     -0.90939711	     29.79024184	     29.79024184	      4.29670961	    -16.37609539	      8.21160456	    -10.08541691	      4.64135617	      3.47560106	     43.80931145	    -14.55942184	      3.60323361	    112.73559414	     44.02370537	      0.00000000	      0.00000000	    -16.67201404	     -7.10848095	      3.97946597	     24.03352195	     45.12127998	      0.00000000	      0.00000000
      7.97150000	     -6.14686333	     -6.24957550	     -1.20126835	      0.99562350	      0.90928116	      0.47193330	     -0.73249087	     -0.07703851	    -12.78794017	     23.30393263	     23.30393263	     17.79503697	      0.06565701	     -7.21744322	     33.64817291	     -9.32230075	     -1.02983146	     30.09105040	     30.09105040	      5.22995934	    -16.27604547	      8.17198166	    -10.08576718	      4.53312468	      3.13669760	     43.00330159	    -14.49957636	      3.54409524	    113.79767320	     44.00767421	      0.00000000	      0.00000000	    -15.69905716	     -7.14422065	      4.09397235	     24.07813936	     45.13647567	      0.00000000	      0.00000000
      7.98300000	     -6.13315622	     -6.08686478	     -1.13038500	      0.99630781	      0.91072877	      0.46859772	      0.22361832	     -0.86889546	    -12.72961232	     26.02464504	     26.02464504	     16.37951434	     -1.16032560	     -9.09445349	     33.01581846	     -8.92935477	     -1.12654916	     30.17497384	     30.17497384	      6.13461336	    -16.15805624	      8.19649972	    -10.07570063	      4.49203643	      3.11407784	     41.75908257	    -14.91021483	      3.34628731	    115.38974601	     43.98148589	      0.00000000	      0.00000000	    -14.49978369	     -7.23347062	      4.11407486	     24.37539799	     45.17370030	      0.00000000	      0.00000000
      7.99450000	     -6.02898082	     -5.92623418	     -1.07177716	      0.99698676	      0.91240534	      0.46537932	      1.09518613	     -1.60477182	    -12.52699684	     28.58719471	     28.58719471	     13.72791784	     -3.21742981	    -13.50849607	     32.21837429	     -8.57600882	     -1.34388353	     30.15762491	     30.15762491	      7.06336895	    -15.90801012	      8.33483362	    -10.20431689	      4.40705770	      3.74807553	     39.80111821	    -15.79820940	      2.35042423	    117.78617015	     43.98929345	      0.00000000	      0.00000000	    -12.92881220	     -7.43778295	      4.11138560	     24.73775246	     45.24974108	      0.00000000	      0.00000000
      8.00600000	     -6.04497158	     -5.76005871	     -1.00334540	      0.99732814	      0.91393006	      0.46221083	      2.47313884	     -2.46520013	    -12.52302282	     31.91236332	     31.91236332	     12.14294130	     -4.51964909	    -14.17521805	     31.44920247	     -8.22527519	     -1.63490575	     29.87813567	     29.87813567	      7.66884278	    -15.59997846	      8.03567491	    -10.13343074	      4.37964590	      3.30522376	     38.58150469	    -15.74743902	      2.51776725	    118.03574774	     43.98015124	      0.00000000	      0.00000000	    -11.92378966	     -7.53342237	      4.07121374	     25.22837686	     45.28096235	      0.00000000	      0.00000000
      8.01750000	     -6.04586312	     -5.59348955	     -0.94641302	      0.99755683	      0.91537990	      0.45923870	      3.98840052	     -3.29893169	    -12.42188225	     35.40073248	     35.40073248	     10.31182569	     -6.14287640	    -14.66588629	     30.65118408	     -7.89597313	     -1.95997577	     29.57006949	     29.57006949	      8.21986254	    -15.28479727	      7.71212815	    -10.09346249	      4.29616643	      3.00103272	     37.03853109	    -15.82138596	      2.63039135	    118.35071388	     43.96740152	      0.00000000	      0.00000000	    -10.83449154	     -7.70935451	      3.94251447	     25.94942467	     45.32529542	      0.00000000	      0.00000000
